# xmcd
#
# Track frame offsets:
#	150
#	16515
#	47991
#	64982
#
# Disc length: 1273 seconds
#
# Revision: 0
# Processed by: cddbd v1.5.2PL0 Copyright (c) Steve Scherf et al.
# Submitted via: EasyCDDAExtractor 2010.6.0.0
#
DISCID=2c04f704
DTITLE=Joy-Lab feat. Melanie Thornton - Freedom (Free Your Mind)
DYEAR=2001
DGENRE=Dance
TTITLE0=Freedom (Free Your Mind) (Radio Mix)
TTITLE1=Freedom (Free Your Mind) (Extended Mix)
TTITLE2=Freedom (Free Your Mind) (Radio Remix)
TTITLE3=Freedom (Free Your Mind) (Club House Mix)
EXTD=
EXTT0=
EXTT1=
EXTT2=
EXTT3=
PLAYORDER=
